<?xml version="1.0" encoding="UTF-8" standalone="no"?>
<svg
   xmlns:dc="http://purl.org/dc/elements/1.1/"
   xmlns:cc="http://web.resource.org/cc/"
   xmlns:rdf="http://www.w3.org/1999/02/22-rdf-syntax-ns#"
   xmlns:svg="http://www.w3.org/2000/svg"
   xmlns="http://www.w3.org/2000/svg"
   xmlns:sodipodi="http://sodipodi.sourceforge.net/DTD/sodipodi-0.dtd"
   xmlns:inkscape="http://www.inkscape.org/namespaces/inkscape"
   width="535.176"
   height="628.049"
   id="svg2"
   sodipodi:version="0.32"
   inkscape:version="0.44.1"
   sodipodi:docname="POL_Żukowo_COA.svg"
   sodipodi:docbase="C:\Documents and Settings\user\Pulpit">
  <metadata
     id="metadata37">
    <rdf:RDF>
      <cc:Work
         rdf:about="">
        <dc:format>image/svg+xml</dc:format>
        <dc:type
           rdf:resource="http://purl.org/dc/dcmitype/StillImage" />
      </cc:Work>
    </rdf:RDF>
  </metadata>
  <sodipodi:namedview
     inkscape:window-height="480"
     inkscape:window-width="640"
     inkscape:pageshadow="2"
     inkscape:pageopacity="0.0"
     guidetolerance="10.0"
     gridtolerance="10.0"
     objecttolerance="10.0"
     borderopacity="1.0"
     bordercolor="#666666"
     pagecolor="#ffffff"
     id="base" />
  <defs
     id="defs4">
    <marker
       id="ArrowEnd"
       viewBox="0 0 10 10"
       refX="0"
       refY="5"
       markerUnits="strokeWidth"
       markerWidth="4"
       markerHeight="3"
       orient="auto">
      <path
         d="M 0 0 L 10 5 L 0 10 z"
         id="path7" />
    </marker>
    <marker
       id="ArrowStart"
       viewBox="0 0 10 10"
       refX="10"
       refY="5"
       markerUnits="strokeWidth"
       markerWidth="4"
       markerHeight="3"
       orient="auto">
      <path
         d="M 10 0 L 0 5 L 10 10 z"
         id="path10" />
    </marker>
  </defs>
  <g
     id="g2039"
     transform="translate(-1.665901,-353.1735)">
    <path
       id="path2033"
       d="M 470.3,458.136 C 467.711,460.797 462.816,459.504 465.765,454.898 C 469.004,448.851 466.125,446.332 457.488,447.918 C 453.531,449.066 453.531,442.23 457.488,441.656 C 469.941,439.426 480.238,446.91 470.3,458.14 L 470.3,458.136 z "
       style="fill:#fffdfd;fill-rule:evenodd;stroke:none" />
    <path
       id="path2031"
       d="M 387.429,464.687 C 391.676,463.968 394.195,459.074 388.722,458.57 C 381.093,457.133 384.187,450.582 389.8,449.859 C 394.55,450.074 395.199,446.187 389.8,445.324 C 373.961,444.176 374.179,465.48 387.426,464.691 L 387.429,464.687 z "
       style="fill:#fffdfd;fill-rule:evenodd;stroke:none" />
    <path
       id="path2029"
       d="M 147.308,461.16 C 142.992,460.441 140.468,455.617 146.015,455.113 C 153.644,453.676 150.476,447.125 144.867,446.402 C 140.117,446.617 139.468,442.66 144.867,441.797 C 160.777,440.648 160.562,461.953 147.312,461.164 L 147.308,461.16 z "
       style="fill:#fffdfd;fill-rule:evenodd;stroke:none" />
    <path
       id="path16"
       d="M 64.3672,454.679 C 67.0274,457.34 71.8513,456.047 68.9727,451.371 C 65.6641,445.398 68.543,442.804 77.2503,444.461 C 81.1363,445.609 81.1363,438.703 77.2503,438.125 C 64.7969,435.894 54.4297,443.379 64.3633,454.683"
       style="fill:#fffdfd;fill-rule:evenodd;stroke:none" />
    <g
       id="g1912">
      <path
         id="path18"
         d="M 229.39,482.398 C 235.437,474.336 249.765,484.988 241.269,497.086 C 227.375,517.82 229.031,532.508 241.629,547.34 C 255.449,562.89 277.629,561.019 290.804,550.074 C 309.019,531.933 303.906,512.347 291.019,498.738 C 282.812,490.316 293.754,478.363 303.691,485.707 C 339.402,523.863 310.961,555.976 290.59,561.015 C 269.351,571.453 250.414,567.062 232.558,555.832 C 213.265,527.465 212.687,505.218 229.39,482.394"
         style="fill:#11b1ee;fill-rule:evenodd;stroke:none" />
      <path
         id="path22"
         d="M 446.832,456.625 C 463.894,434.09 427.898,423.578 425.019,444.89 C 409.398,425.812 391.613,450.504 407.668,463.394 C 388.59,472.754 400.613,496.945 418.32,489.886 C 418.894,509.398 451.437,508.316 447.476,485.351 C 460.867,492.476 481.746,456.121 446.832,456.625 z M 87.9103,453.168 C 70.7773,430.633 106.773,420.051 109.652,441.363 C 125.273,422.285 143.058,446.976 127.074,459.867 C 146.152,469.297 134.129,493.488 116.422,486.433 C 115.054,505.945 83.2303,504.793 87.2653,481.828 C 73.8043,488.953 52.9219,452.597 87.9103,453.176 L 87.9103,453.168 z M 231.261,481.105 C 239.972,469.156 225.793,458.929 217.367,469.082 C 195.695,495.215 194.113,520.703 208.008,542.16 C 247.75,591.406 308.086,576 327.308,538.203 C 339.402,513.437 329.324,489.101 316.152,468.078 C 308.523,459.801 291.172,471.316 298.66,480.89 C 324.867,515.953 317.808,537.265 299.09,554.617 C 284.332,565.847 254.234,573.047 234.218,552.316 C 219.894,535.183 212.043,512.863 231.269,481.109"
         style="fill:#209fd9;fill-rule:evenodd;stroke:none" />
      <path
         id="path24"
         d="M 456.191,395.929 C 463.316,410.543 461.515,420.625 450.722,430.488 C 449.211,431.711 447.484,431.062 446.836,428.976 C 441.008,411.625 443.453,406.801 451.8,396.793 C 453.023,395.355 454.75,393.769 456.191,395.929 z M 408.597,500.258 C 406.726,508.679 401.039,514.222 393.047,519.625 C 393.621,520.054 394.269,520.558 394.843,520.992 C 409.457,506.738 420.187,518.332 433.648,520.273 C 436.597,520.703 437.965,523.078 435.949,525.312 C 425.656,534.453 413.488,535.101 398.152,532.222 C 394.554,531.504 391.531,527.617 393.043,523.441 C 392.468,522.148 390.886,521.285 387.933,523.082 C 383.039,526.894 379.222,528.406 367.777,534.886 C 375.047,534.746 379.726,538.844 384.984,539.133 C 387.863,539.062 387.285,542.011 384.625,542.945 C 376.133,544.527 365.906,538.699 349.562,540.789 C 346.902,541.148 344.453,541.722 342.218,543.164 C 340.422,544.676 338.476,542.445 341.14,540.644 C 345.82,537.621 359.426,534.527 362.449,533.16 C 363.961,532.515 363.886,531.074 361.156,531.363 C 358.781,531.293 357.125,529.851 357.629,526.758 C 360.148,513.152 372.172,507.968 378.363,505.375 C 381.168,504.297 383.183,505.375 382.609,507.605 C 380.234,517.754 376.058,523.011 371.019,525.965 C 368.285,528.34 372.746,527.113 374.691,526.468 C 388.297,520.711 404.57,506.023 406.082,499.832 C 406.152,497.601 408.886,497.676 408.601,500.261 L 408.597,500.258 z M 189.574,569.16 C 187.922,560.883 195.117,546.914 220.89,552.961 C 253.718,576.648 285.832,571.32 317.586,547.996 C 329.894,552.457 341.777,557.136 341.199,568.297 C 341.058,570.742 339.832,572.543 338.105,571.246 C 330.402,567.433 326.804,571.89 321.117,572.254 C 324.426,576.933 325.074,581.179 324.426,584.707 C 318.883,582.91 309.379,584.636 307.797,579.308 C 303.48,582.547 306.789,586.218 309.09,589.097 C 312.039,592.265 306.14,596.078 303.691,593.414 C 299.66,589.238 294.836,586.648 291.383,587.441 C 280.945,587.726 276.121,582.117 269.64,577.218 C 261.433,574.051 253.371,576.5 245.164,587.226 C 238.183,584.203 233.574,589.097 228.82,593.418 C 225.726,588.379 226.519,582.332 230.043,579.308 C 215.933,578.16 208.371,580.316 204.699,588.019 C 199.086,583.703 200.453,576.933 205.562,570.597 C 200.238,568.367 194.91,568.582 189.582,569.16 L 189.574,569.16 z M 123.84,495 C 125.636,503.492 131.398,508.965 139.39,514.367 C 138.746,514.871 138.168,515.301 137.593,515.804 C 122.98,501.48 109.875,508.965 96.4103,510.91 C 93.3163,511.773 91.7303,514.148 94.1093,516.019 C 104.402,525.16 120.461,530.633 135.433,526.961 C 137.808,525.668 141.047,522.929 139.39,518.179 C 139.894,516.886 141.476,516.023 144.429,517.82 C 149.324,521.633 153.211,523.144 164.586,529.699 C 157.316,529.558 152.636,533.586 147.379,533.875 C 144.355,534.379 145.078,536.824 147.738,537.687 C 156.09,539.844 166.527,533.511 182.8,535.531 C 185.101,535.672 187.91,536.539 190.215,537.976 C 191.941,538.84 193.597,537.547 191.222,535.386 C 186.543,532.363 172.937,529.269 169.984,527.902 C 168.472,527.258 168.472,525.816 171.207,526.105 C 173.652,526.035 175.308,524.594 174.804,521.5 C 172.215,507.894 160.261,502.711 154,500.117 C 151.195,499.109 149.035,500.117 149.824,502.418 C 152.125,512.496 156.375,517.754 161.414,520.777 C 164.148,523.078 159.617,521.855 157.742,521.281 C 144.136,515.453 127.793,500.761 126.351,494.644 C 125.847,492.344 123.547,492.414 123.832,495.004 L 123.84,495 z M 78.5503,392.398 C 71.4263,407.011 73.1523,417.094 83.9493,427.027 C 85.4613,428.176 87.2583,427.601 87.9063,425.515 C 93.7343,408.164 91.2893,403.34 82.8673,393.261 C 81.0703,391.824 79.9183,390.238 78.5503,392.398"
         style="fill:#3ba66d;fill-rule:evenodd;stroke:none" />
      <path
         id="path26"
         d="M 267.91,486 C 271.582,486 274.605,489.023 274.605,492.765 C 274.605,496.437 271.582,499.461 267.91,499.461 C 264.168,499.461 261.144,496.437 261.144,492.765 C 261.144,489.023 264.168,486 267.91,486 z M 282.093,474.914 C 285.836,474.914 288.789,477.863 288.789,481.609 C 288.789,485.281 285.84,488.304 282.093,488.304 C 278.422,488.304 275.398,485.281 275.398,481.609 C 275.398,477.867 278.422,474.914 282.093,474.914 z M 277.343,458.062 C 281.015,458.062 284.039,461.086 284.039,464.758 C 284.039,468.429 281.015,471.453 277.343,471.453 C 273.672,471.453 270.648,468.429 270.648,464.758 C 270.648,461.086 273.672,458.062 277.343,458.062 z M 256.894,458.496 C 260.566,458.496 263.59,461.519 263.59,465.191 C 263.59,468.933 260.566,471.886 256.894,471.886 C 253.222,471.886 250.199,468.937 250.199,465.191 C 250.199,461.519 253.222,458.496 256.894,458.496 z M 252.789,476.711 C 256.461,476.711 259.41,479.734 259.41,483.476 C 259.41,487.148 256.461,490.172 252.789,490.172 C 249.047,490.172 246.023,487.148 246.023,483.476 C 246.023,479.734 249.047,476.711 252.789,476.711 z M 235.008,502.273 C 246.023,491.621 257.543,503.64 251.855,513.504 C 245.09,527.183 246.531,538.703 252.863,547.773 C 260.636,558.715 275.324,560.082 282.668,548.562 C 288.64,538.414 286.05,524.086 281.66,514.582 C 275.254,501.265 289.074,494.207 295.34,500.832 C 310.676,522.429 309.664,539.855 285.191,556.484 C 270,565.625 255.672,562.242 241.633,553.176 C 225.937,534.672 223.633,518.547 235.011,502.273"
         style="fill:#92d7f7;fill-rule:evenodd;stroke:none" />
      <path
         id="path28"
         d="M 106.054,480.097 C 114.043,480.097 120.523,473.621 120.523,465.629 C 120.523,457.711 114.047,451.16 106.054,451.16 C 98.0663,451.16 91.5863,457.711 91.5863,465.629 C 91.5863,473.617 98.0623,480.097 106.054,480.097 z M 267.55,587.664 C 273.812,587.664 278.926,582.554 278.926,576.289 C 278.926,571.324 275.687,567.004 271.152,565.492 C 280.511,553.972 282.672,526.468 279.215,518.261 C 273.097,505.086 262.008,508.976 257.402,516.32 C 252.508,524.527 257.043,555.773 264.457,565.351 C 259.636,566.718 256.25,571.109 256.25,576.293 C 256.25,582.554 261.289,587.668 267.55,587.668 L 267.55,587.664 z M 428.613,483.625 C 420.695,483.625 414.144,477.148 414.144,469.156 C 414.144,461.168 420.695,454.687 428.613,454.687 C 436.601,454.687 443.082,461.164 443.082,469.156 C 443.082,477.144 436.605,483.625 428.613,483.625 z M 266.902,485.136 C 271.293,485.136 274.89,481.609 274.89,477.218 C 274.89,472.828 271.293,469.23 266.902,469.23 C 262.511,469.23 258.984,472.828 258.984,477.218 C 258.984,481.609 262.511,485.136 266.902,485.136"
         style="fill:#222;fill-rule:evenodd;stroke:none" />
    </g>
    <path
       id="path1955"
       d="M 106.054,476.351 C 111.957,476.351 116.707,471.531 116.707,465.625 C 116.707,459.797 111.957,454.972 106.054,454.972 C 100.152,454.972 95.4023,459.793 95.4023,465.625 C 95.4023,471.527 100.152,476.351 106.054,476.351 z "
       style="fill:#fff101;fill-rule:evenodd;stroke:none" />
    <path
       id="path1953"
       d="M 266.902,482.328 C 269.781,482.328 272.086,480.027 272.086,477.218 C 272.086,474.34 269.785,472.035 266.902,472.035 C 264.097,472.035 261.793,474.336 261.793,477.218 C 261.793,480.023 264.093,482.328 266.902,482.328 z "
       style="fill:#fff101;fill-rule:evenodd;stroke:none" />
    <path
       id="path1951"
       d="M 270.644,562.754 C 269.422,564.769 266.972,564.91 265.75,563.258 C 258.769,546.554 257.617,526.179 259.414,519.051 C 261.715,511.492 271.218,510.34 276.117,517.683 C 280.578,525.457 276.476,551.953 270.648,562.754 L 270.644,562.754 z "
       style="fill:#fff101;fill-rule:evenodd;stroke:none" />
    <path
       id="path32"
       d="M 428.613,479.808 C 422.785,479.808 417.961,475.058 417.961,469.156 C 417.961,463.254 422.781,458.429 428.613,458.429 C 434.515,458.429 439.34,463.25 439.34,469.156 C 439.34,475.058 434.519,479.808 428.613,479.808"
       style="fill:#fff101;fill-rule:evenodd;stroke:none" />
    <path
       id="path34"
       d="M 267.55,584.136 C 271.867,584.136 275.398,580.609 275.398,576.289 C 275.398,571.972 271.871,568.441 267.55,568.441 C 263.234,568.441 259.703,571.968 259.703,576.289 C 259.703,580.605 263.23,584.136 267.55,584.136"
       style="fill:#ec2a32;fill-rule:evenodd;stroke:none" />
  </g>
</svg>
